<?xml version="1.0" encoding="UTF-8"?>
<svg xmlns="http://www.w3.org/2000/svg" xmlns:xlink="http://www.w3.org/1999/xlink" width="53pt" height="53pt" viewBox="0 0 53 53" version="1.1">
<g id="surface1">
<path style=" stroke:none;fill-rule:nonzero;fill:rgb(100%,32.156863%,51.764706%);fill-opacity:1;" d="M 37.265625 20.703125 L 37.191406 20.65625 L 37.164062 20.703125 L 37.164062 33.539062 L 37.128906 33.515625 L 26.5 40.183594 L 26.5 51.964844 C 27.101562 51.613281 47.222656 39.894531 47.824219 39.542969 C 47.824219 38.824219 47.824219 14.796875 47.824219 14.078125 Z M 37.265625 20.703125 "/>
<path style=" stroke:none;fill-rule:nonzero;fill:rgb(100%,100%,100%);fill-opacity:1;" d="M 26.515625 13.753906 L 15.835938 20.289062 L 15.835938 33.496094 L 26.5 40.183594 L 37.128906 33.515625 L 37.164062 33.496094 L 37.164062 20.703125 L 37.191406 20.65625 Z M 26.515625 13.753906 "/>
<path style=" stroke:none;fill-rule:nonzero;fill:rgb(25.882353%,31.372549%,44.705882%);fill-opacity:1;" d="M 26.515625 13.753906 L 15.835938 20.289062 L 15.835938 33.496094 L 26.5 26.8125 L 37.128906 33.515625 L 37.164062 33.496094 L 37.164062 20.703125 L 37.191406 20.65625 Z M 26.515625 13.753906 "/>
<path style=" stroke:none;fill-rule:nonzero;fill:rgb(100%,89.019608%,36.078431%);fill-opacity:1;" d="M 26.5 1.035156 C 25.753906 1.492188 6.339844 13.367188 5.175781 14.078125 L 15.835938 20.289062 L 26.515625 13.753906 L 37.191406 20.65625 L 37.265625 20.703125 L 47.824219 14.078125 C 46.78125 13.441406 27.445312 1.613281 26.5 1.035156 Z M 26.5 1.035156 "/>
<path style=" stroke:none;fill-rule:nonzero;fill:rgb(62.745098%,89.411765%,97.254902%);fill-opacity:1;" d="M 15.835938 33.496094 L 15.835938 20.289062 L 5.175781 14.078125 L 5.175781 39.542969 C 5.777344 39.894531 25.898438 51.613281 26.5 51.964844 L 26.5 40.183594 Z M 15.835938 33.496094 "/>
<path style=" stroke:none;fill-rule:nonzero;fill:rgb(0%,0%,0%);fill-opacity:1;" d="M 26.5 21.324219 C 25.929688 21.324219 25.464844 21.789062 25.464844 22.359375 C 25.464844 22.929688 25.929688 23.394531 26.5 23.394531 C 27.070312 23.394531 27.535156 22.929688 27.535156 22.359375 C 27.535156 21.789062 27.070312 21.324219 26.5 21.324219 Z M 26.5 21.324219 "/>
<path style=" stroke:none;fill-rule:nonzero;fill:rgb(0%,0%,0%);fill-opacity:1;" d="M 48.859375 39.542969 L 48.859375 14.078125 C 48.859375 14.070312 48.859375 14.066406 48.859375 14.058594 C 48.851562 13.707031 48.667969 13.386719 48.378906 13.203125 C 48.375 13.203125 48.367188 13.199219 48.363281 13.195312 L 27.039062 0.152344 C 26.707031 -0.0507812 26.292969 -0.0507812 25.960938 0.152344 L 4.640625 13.191406 C 4.339844 13.375 4.144531 13.707031 4.140625 14.066406 C 4.140625 14.070312 4.140625 14.074219 4.140625 14.078125 L 4.140625 39.542969 C 4.140625 39.910156 4.335938 40.253906 4.65625 40.4375 L 25.980469 52.859375 C 26.132812 52.949219 26.316406 53 26.5 53 C 26.683594 53 26.867188 52.949219 27.019531 52.859375 L 48.34375 40.4375 C 48.664062 40.253906 48.859375 39.910156 48.859375 39.542969 Z M 6.210938 15.878906 L 14.804688 20.882812 L 14.804688 31.625 L 6.210938 26.238281 Z M 16.382812 8.4375 L 24.570312 13.730469 L 15.824219 19.082031 L 7.195312 14.054688 Z M 45.859375 14.089844 L 37.273438 19.476562 L 28.460938 13.777344 L 36.902344 8.613281 Z M 26.5 38.960938 L 17.785156 33.496094 L 26.5 28.035156 L 35.183594 33.515625 Z M 27.050781 25.933594 C 26.714844 25.722656 26.289062 25.722656 25.949219 25.933594 L 16.875 31.625 L 16.875 20.871094 L 25.464844 15.609375 L 25.464844 18.21875 C 25.464844 18.789062 25.929688 19.253906 26.5 19.253906 C 27.070312 19.253906 27.535156 18.789062 27.535156 18.21875 L 27.535156 15.644531 L 36.125 21.199219 L 36.125 31.660156 Z M 16.875 35.367188 L 25.464844 40.753906 L 25.464844 50.164062 L 16.875 45.160156 Z M 27.535156 40.753906 L 36.125 35.367188 L 36.125 45.160156 L 27.535156 50.164062 Z M 38.195312 21.339844 L 46.789062 15.949219 L 46.789062 26.238281 L 38.195312 31.625 Z M 26.5 2.25 L 34.917969 7.398438 L 26.53125 12.53125 L 18.34375 7.238281 Z M 6.210938 28.679688 L 14.804688 34.066406 L 14.804688 43.953125 L 6.210938 38.949219 Z M 38.195312 43.953125 L 38.195312 34.070312 L 46.789062 28.679688 L 46.789062 38.949219 Z M 38.195312 43.953125 "/>
</g>
</svg>
