<?xml version="1.0" encoding="UTF-8"?>
<svg xmlns="http://www.w3.org/2000/svg" xmlns:xlink="http://www.w3.org/1999/xlink" width="480pt" height="480pt" viewBox="0 0 480 480" version="1.1">
<g id="surface1">
<path style=" stroke:none;fill-rule:nonzero;fill:rgb(100%,32.156863%,51.764706%);fill-opacity:1;" d="M 337.5 187.5 L 336.832031 187.066406 L 336.5625 187.5 L 336.5625 303.75 L 336.253906 303.550781 L 240 363.910156 L 240 470.625 C 245.445312 467.453125 427.679688 361.296875 433.125 358.125 C 433.125 351.617188 433.125 134.003906 433.125 127.5 Z M 337.5 187.5 "/>
<path style=" stroke:none;fill-rule:nonzero;fill:rgb(100%,100%,100%);fill-opacity:1;" d="M 240.140625 124.566406 L 143.4375 183.75 L 143.4375 303.367188 L 240 363.910156 L 336.253906 303.550781 L 336.5625 303.367188 L 336.5625 187.5 L 336.832031 187.066406 Z M 240.140625 124.566406 "/>
<path style=" stroke:none;fill-rule:nonzero;fill:rgb(25.882353%,31.372549%,44.705882%);fill-opacity:1;" d="M 240.140625 124.566406 L 143.4375 183.75 L 143.4375 303.367188 L 240 242.8125 L 336.253906 303.550781 L 336.5625 303.367188 L 336.5625 187.5 L 336.832031 187.066406 Z M 240.140625 124.566406 "/>
<path style=" stroke:none;fill-rule:nonzero;fill:rgb(100%,89.019608%,36.078431%);fill-opacity:1;" d="M 240 9.375 C 233.25 13.503906 57.425781 121.046875 46.875 127.5 L 143.4375 183.75 L 240.140625 124.566406 L 336.832031 187.066406 L 337.5 187.5 L 433.125 127.5 C 423.695312 121.730469 248.558594 14.609375 240 9.375 Z M 240 9.375 "/>
<path style=" stroke:none;fill-rule:nonzero;fill:rgb(62.745098%,89.411765%,97.254902%);fill-opacity:1;" d="M 143.4375 303.367188 L 143.4375 183.75 L 46.875 127.5 L 46.875 358.125 C 52.320312 361.296875 234.554688 467.453125 240 470.625 L 240 363.910156 Z M 143.4375 303.367188 "/>
<path style=" stroke:none;fill-rule:nonzero;fill:rgb(0%,0%,0%);fill-opacity:1;" d="M 240 193.125 C 234.824219 193.125 230.625 197.324219 230.625 202.5 C 230.625 207.675781 234.824219 211.875 240 211.875 C 245.175781 211.875 249.375 207.675781 249.375 202.5 C 249.375 197.324219 245.175781 193.125 240 193.125 Z M 240 193.125 "/>
<path style=" stroke:none;fill-rule:nonzero;fill:rgb(0%,0%,0%);fill-opacity:1;" d="M 442.5 358.125 L 442.5 127.5 C 442.5 127.445312 442.488281 127.390625 442.488281 127.332031 C 442.433594 124.132812 440.765625 121.253906 438.136719 119.589844 C 438.097656 119.5625 438.058594 119.527344 438.015625 119.5 L 244.890625 1.375 C 241.890625 -0.457031 238.109375 -0.457031 235.109375 1.375 L 42.039062 119.46875 C 39.292969 121.117188 37.535156 124.140625 37.507812 127.40625 C 37.507812 127.4375 37.5 127.46875 37.5 127.5 L 37.5 358.125 C 37.5 361.460938 39.273438 364.546875 42.15625 366.226562 L 235.28125 478.726562 C 236.675781 479.539062 238.332031 480 240 480 C 241.667969 480 243.332031 479.535156 244.714844 478.726562 L 437.839844 366.226562 C 440.726562 364.546875 442.5 361.460938 442.5 358.125 Z M 56.25 143.8125 L 134.0625 189.136719 L 134.0625 286.414062 L 56.25 237.625 Z M 148.375 76.410156 L 222.539062 124.351562 L 143.320312 172.832031 L 65.164062 127.304688 Z M 415.324219 127.601562 L 337.578125 176.386719 L 257.75 124.785156 L 334.210938 77.992188 Z M 240 352.84375 L 161.078125 303.363281 L 239.984375 253.886719 L 318.648438 303.527344 Z M 245.003906 234.882812 C 241.957031 232.960938 238.074219 232.953125 235.019531 234.871094 L 152.8125 286.414062 L 152.8125 189.003906 L 230.625 141.382812 L 230.625 165 C 230.625 170.179688 234.820312 174.375 240 174.375 C 245.179688 174.375 249.375 170.179688 249.375 165 L 249.375 141.699219 L 327.1875 191.996094 L 327.1875 286.75 Z M 152.8125 320.308594 L 230.625 369.097656 L 230.625 454.3125 L 152.8125 408.988281 Z M 249.375 369.097656 L 327.1875 320.300781 L 327.1875 408.988281 L 249.375 454.3125 Z M 345.9375 193.273438 L 423.75 144.453125 L 423.75 237.625 L 345.9375 286.421875 Z M 240 20.363281 L 316.25 67 L 240.28125 113.492188 L 166.121094 65.550781 Z M 56.25 259.757812 L 134.0625 308.542969 L 134.0625 398.0625 L 56.25 352.738281 Z M 345.9375 398.0625 L 345.9375 308.554688 L 423.75 259.757812 L 423.75 352.738281 Z M 345.9375 398.0625 "/>
</g>
</svg>
